****** City.of.God.2002.DVDRiP.XviD.OPTIONAL-MULTISUB-Zen_Bud ******


Format                           : AVI
File size                        : 1.37 GiB
Duration                         : 2h 4mn
Overall bit rate                 : 1 585 Kbps

Video

Format                           : MPEG-4 Visual
Codec ID/Hint                    : XviD
Duration                         : 2h 4mn
Bit rate                         : 1 460 Kbps
Width                            : 718 pixels
Height                           : 550 pixels
Display aspect ratio             : 1.857
Stream size                      : 1.27 GiB (92%)
Writing library                  : XviD 1.1.2 (UTC 2006-11-01)

Audio

Format                           : MPEG Audio
Codec ID/Hint                    : MP3
Duration                         : 2h 4mn
Bit rate                         : 112 Kbps
Channel(s)                       : 2 channels
Sampling rate                    : 48.0 KHz
Stream size                      : 99.4 MiB (7%)
Language                         : Portuguese

Text #1
Language                         : Danish

Text #2
Language                         : Swedish

Text #3
Language                         : Finnish

Two boys growing up in a violent neighborhood of Rio de Janeiro 

take different paths: one becomes a photographer, the other a drug 

dealer.